<?xml version="1.0" standalone="no"?><svg xmlns="http://www.w3.org/2000/svg" viewBox="0 0 1440 320"><path fill="#000b76" fill-opacity="0.9" d="M0,256L30,256C60,256,120,256,180,234.7C240,213,300,171,360,154.7C420,139,480,149,540,149.3C600,149,660,139,720,160C780,181,840,235,900,245.3C960,256,1020,224,1080,181.3C1140,139,1200,85,1260,74.7C1320,64,1380,96,1410,112L1440,128L1440,320L1410,320C1380,320,1320,320,1260,320C1200,320,1140,320,1080,320C1020,320,960,320,900,320C840,320,780,320,720,320C660,320,600,320,540,320C480,320,420,320,360,320C300,320,240,320,180,320C120,320,60,320,30,320L0,320Z"></path></svg>